<svg width="24" height="22" viewBox="0 0 24 22" fill="none" xmlns="http://www.w3.org/2000/svg">
<path fill-rule="evenodd" clip-rule="evenodd" d="M0.605625 6.99656H5.28337V21.8184H0.605625V6.99656ZM2.82525 5.14275H2.7915C1.09781 5.14275 0 4.00969 0 2.57344C0 1.10906 1.13025 0 2.8575 0C4.58325 0 5.6445 1.10625 5.67825 2.56931C5.67825 4.00556 4.58325 5.14275 2.82506 5.14275H2.82525ZM24 21.8182H18.6937V14.1482C18.6937 12.1406 17.8641 10.77 16.0395 10.77C14.6439 10.77 13.8679 11.6949 13.5064 12.5861C13.371 12.906 13.3939 13.3517 13.3939 13.7974V21.8181H8.13937V6.99619H13.3942V9.32231C13.7047 8.30531 15.3836 6.85369 18.0636 6.85369C21.3879 6.85369 23.9998 8.98556 23.9998 13.5765V21.8181L24 21.8182Z" fill="#007EBB"/>
</svg>
